<svg width="22" height="21" viewBox="0 0 22 21" fill="none" xmlns="http://www.w3.org/2000/svg">
<path d="M21.4234 8.11824C21.3297 7.82998 21.1527 7.57592 20.9148 7.38807C20.6769 7.20022 20.3887 7.08698 20.0866 7.06261L14.5553 6.61636L12.4197 1.45168C12.3042 1.17026 12.1076 0.929534 11.855 0.760118C11.6023 0.590702 11.305 0.500244 11.0008 0.500244C10.6966 0.500244 10.3992 0.590702 10.1466 0.760118C9.89394 0.929534 9.69736 1.17026 9.58187 1.45168L7.44812 6.61543L1.91406 7.06261C1.61141 7.08821 1.32305 7.20255 1.0851 7.39131C0.847144 7.58006 0.670187 7.83485 0.576395 8.12373C0.482603 8.41261 0.476148 8.72275 0.557838 9.01528C0.639527 9.30782 0.805729 9.56974 1.03562 9.76824L5.25437 13.4086L3.96906 18.8517C3.89814 19.1472 3.9164 19.4571 4.02154 19.7423C4.12667 20.0274 4.31396 20.2751 4.55974 20.4538C4.80553 20.6326 5.09878 20.7345 5.40246 20.7467C5.70613 20.7589 6.00661 20.6808 6.26593 20.5223L11.0003 17.6086L15.7375 20.5223C15.9968 20.6799 16.2969 20.7572 16.6001 20.7446C16.9032 20.732 17.1958 20.6299 17.4411 20.4513C17.6864 20.2727 17.8733 20.0255 17.9784 19.7408C18.0835 19.4562 18.102 19.1468 18.0316 18.8517L16.7416 13.4076L20.9603 9.7673C21.1921 9.56914 21.3598 9.30665 21.4422 9.01308C21.5247 8.71951 21.5181 8.40808 21.4234 8.11824ZM19.9853 8.63105L15.4197 12.5686C15.3156 12.6583 15.2381 12.7749 15.1958 12.9057C15.1535 13.0365 15.1479 13.1764 15.1797 13.3101L16.5747 19.1976C16.5783 19.2057 16.5787 19.2149 16.5757 19.2233C16.5727 19.2317 16.5667 19.2386 16.5587 19.2426C16.5419 19.2557 16.5372 19.2529 16.5231 19.2426L11.3931 16.0879C11.2748 16.0158 11.1389 15.9778 11.0003 15.9782V2.00011C11.0228 2.00011 11.0256 2.00761 11.0331 2.02449L13.3441 7.61199C13.3968 7.73971 13.4838 7.85037 13.5955 7.93176C13.7072 8.01315 13.8391 8.06211 13.9769 8.07324L19.9684 8.55699C19.9834 8.55699 19.9919 8.55699 20.0003 8.58418C20.0087 8.61136 20.0003 8.62168 19.9853 8.63105Z" fill="black"/>
</svg>